PathFileType	4	(X/Y/Z)	..\data\2015035\dynamic\2015035_C4_03.trc
DataRate	CameraRate	NumFrames	NumMarkers	Units	OrigDataRate	OrigDataStartFrame	OrigNumFrames
100.000000	100.000000	4	52	mm	100.000000	0	179
Frame#	Time	L_IAS			L_IPS			R_IPS			R_IAS			L_FTC			L_FLE			L_FME			L_FAX			L_TTC			L_FAL			L_TAM			L_FCC			L_FM1			L_FM2			L_FM5			R_FTC			R_FLE			R_FME			R_FAX			R_TTC			R_FAL			R_TAM			R_FCC			R_FM1			R_FM2			R_FM5			CV7			TV10			SXS			SJN			L_SIA			L_SRS			L_SAA			L_SAE			L_HLE			L_HME			L_UOA			L_RSP			L_UHE			L_HM2			L_HM5			R_SIA			R_SRS			R_SAA			R_SAE			R_HLE			R_HME			R_UOA			R_RSP			R_UHE			R_HM2			R_HM5			
		X1	Y1	Z1	X2	Y2	Z2	X3	Y3	Z3	X4	Y4	Z4	X5	Y5	Z5	X6	Y6	Z6	X7	Y7	Z7	X8	Y8	Z8	X9	Y9	Z9	X10	Y10	Z10	X11	Y11	Z11	X12	Y12	Z12	X13	Y13	Z13	X14	Y14	Z14	X15	Y15	Z15	X16	Y16	Z16	X17	Y17	Z17	X18	Y18	Z18	X19	Y19	Z19	X20	Y20	Z20	X21	Y21	Z21	X22	Y22	Z22	X23	Y23	Z23	X24	Y24	Z24	X25	Y25	Z25	X26	Y26	Z26	X27	Y27	Z27	X28	Y28	Z28	X29	Y29	Z29	X30	Y30	Z30	X31	Y31	Z31	X32	Y32	Z32	X33	Y33	Z33	X34	Y34	Z34	X35	Y35	Z35	X36	Y36	Z36	X37	Y37	Z37	X38	Y38	Z38	X39	Y39	Z39	X40	Y40	Z40	X41	Y41	Z41	X42	Y42	Z42	X43	Y43	Z43	X44	Y44	Z44	X45	Y45	Z45	X46	Y46	Z46	X47	Y47	Z47	X48	Y48	Z48	X49	Y49	Z49	X50	Y50	Z50	X51	Y51	Z51	X52	Y52	Z52	

1	0	-206.1841583251954	943.5648193359377	-334.6576843261719	-402.2987365722657	972.6558837890627	-248.408432006836	-401.7418823242189	972.9689941406252	-163.7202301025391	-215.8045806884766	950.0366210937502	-66.66741943359376	-293.2365112304688	873.210388183594	-388.1683349609376	-134.8162841796875	462.2950134277345	-368.6971130371094	-141.464096069336	465.1092834472657	-225.3888854980469	-127.4414138793946	412.9791564941407	-369.0405273437501	-54.75352478027345	412.3323059082032	-319.8697814941407	-9.371896743774416	63.3305015563965	-340.1295471191407	16.22592544555664	94.51097106933595	-250.0818176269532	-33.17501449584962	15.83089542388916	-281.4130859375001	148.7913360595703	78.02456665039064	-265.4226989746094	139.3752899169922	88.97834777832033	-320.3825378417969	112.3532104492188	53.89923095703126	-364.2324829101563	-315.1505737304688	870.3298950195315	-18.37784576416016	-394.3891601562501	457.040496826172	-75.82244110107423	-389.5589294433595	465.1135253906251	-200.3023986816407	-430.7500000000001	419.177215576172	-78.62563323974611	-372.5691223144532	382.2784423828126	-125.4116744995117	-557.2036743164064	76.08969879150392	-123.2641677856446	-505.2140502929689	88.80262756347658	-205.8633270263672	-589.0087280273439	36.75282287597657	-174.7098693847657	-396.9827270507814	18.96904373168946	-189.5870666503907	-380.8082885742188	28.27490043640137	-130.4824676513672	-453.0378417968751	14.63392639160157	-84.20652770996095	-354.7574462890626	1482.572265625	-200.9225769042969	-425.2857360839845	1194.662719726563	-194.8562927246094	-172.9990539550782	1217.62646484375	-218.6513061523438	-216.3648529052735	1387.238647460938	-214.894515991211	-446.3211059570314	1274.690673828125	-304.6351318359376	-404.7324523925782	1419.878051757813	-288.1657714843751	-341.8575134277344	1413.601318359375	-390.9291992187501	-296.9067382812501	1410.110107421875	-405.0672912597657	-380.4768066406251	1113.877807617188	-490.2862854003907	-419.8758239746095	1105.236328125	-403.1265869140626	-429.1016845703126	1091.712524414063	-459.5707397460939	-306.1012573242188	849.170349121094	-456.2684326171876	-356.3604736328126	852.2365722656252	-515.7950439453126	-285.1929321289063	761.8417968750001	-460.4071044921876	-373.7281799316407	772.7094726562502	-517.7838745117189	-403.5946044921876	1271.104736328125	-58.48563385009767	-375.9867553710938	1415.137084960938	-94.00301361083986	-287.5615234375001	1398.447875976563	-3.925664901733399	-234.1570434570313	1397.026611328125	-5.187355518341065	-213.7230682373047	1111.118774414063	97.59890747070315	-265.4168701171876	1084.251586914063	23.16694641113282	-250.1202392578126	1067.061767578125	83.67824554443361	-24.98745346069337	918.5886840820315	22.70516204833985	-66.50988769531251	886.7036743164065	82.92615509033205	37.84696578979493	849.128845214844	17.76094245910645	-40.19160842895509	824.7701416015627	86.23242950439455	
2	0.01	-193.9396362304688	941.8747558593752	-334.8199768066407	-390.5417480468751	970.7258300781252	-249.5673065185547	-390.1838989257814	971.0371093750002	-164.9934234619141	-204.9958648681641	948.6082153320315	-66.5469436645508	-280.7569885253907	871.3209228515627	-388.6680908203126	-123.0830154418946	460.5396728515626	-367.9021911621094	-130.7741088867188	463.2796020507814	-224.422592163086	-115.1614456176758	411.3058166503907	-368.1022644042969	-42.4925651550293	411.6602783203126	-318.3283386230469	7.287823200225832	63.21775817871095	-338.6160583496094	32.08773040771485	94.59851837158205	-248.4483947753907	-16.42722320556641	15.5171480178833	-280.0297546386719	164.9932861328125	79.3645477294922	-262.8753967285157	155.770004272461	90.05931854248048	-317.9149169921876	129.4526672363282	54.65808105468751	-361.7121276855469	-304.8618164062501	868.897644042969	-19.08317184448243	-386.3509521484376	456.5769958496095	-76.07893371582033	-380.3908691406251	464.3400268554689	-200.6506042480469	-423.2144775390626	419.129364013672	-79.10068511962892	-365.4491271972657	381.2582397460938	-125.4880142211914	-556.2064819335939	78.24342346191408	-123.3018417358399	-503.8453063964845	90.1538543701172	-205.9037322998047	-588.6217651367189	39.48798370361329	-174.8136901855469	-396.5039062500001	18.9873275756836	-189.4932861328125	-380.4256286621094	28.26684951782227	-130.4000549316407	-452.9141235351564	14.81819343566895	-84.31946563720705	-343.3369445800782	1480.855102539063	-202.3772125244141	-414.0578613281251	1193.070556640625	-195.9460449218751	-161.7193756103516	1215.889282226563	-219.4017639160157	-205.0764923095704	1385.43017578125	-216.1558532714844	-435.012664794922	1272.66943359375	-305.6129455566407	-393.3136291503907	1417.984741210938	-289.4418334960938	-330.5433654785157	1411.326049804688	-392.2530822753907	-285.5837402343751	1407.792114257813	-406.3974609375001	-368.9868774414063	1111.061279296875	-490.6001892089845	-408.4711914062501	1102.802734375	-403.3985595703126	-417.8388977050782	1089.287719726563	-459.7330932617189	-295.4576416015626	846.5407714843752	-456.5027160644532	-345.7321777343751	849.6751098632815	-516.0151367187501	-275.0422058105469	758.9697265625001	-460.2381591796876	-363.4156188964844	770.2208251953127	-517.8400268554689	-392.435760498047	1269.705932617188	-59.62661743164064	-364.6079711914063	1413.807006835938	-95.26216888427736	-276.1298522949219	1396.966918945313	-5.202015399932862	-222.6956634521485	1395.520263671875	-6.503408908843996	-202.3961944580079	1109.45263671875	96.17946624755862	-254.0200958251954	1082.61962890625	21.64421272277832	-238.9524993896485	1065.503173828125	82.19856262207033	-13.84574127197266	916.8792114257815	21.97727394104004	-55.45825958251955	885.0456542968752	82.06712341308595	48.90881347656251	847.2959594726565	17.1928882598877	-29.30335426330567	823.0689697265627	85.49111938476564	
3	0.02	-181.6105194091797	940.447692871094	-334.9907531738282	-378.6103515625001	969.0307617187502	-250.7454833984376	-378.3682861328126	969.2342529296877	-166.2853546142578	-193.9508819580079	947.2620239257815	-66.5188446044922	-268.0130004882813	869.8380126953127	-389.3037414550782	-110.7081069946289	459.2080688476564	-367.2052917480469	-119.6126785278321	461.921356201172	-223.7341308593751	-102.5382919311524	410.0065917968751	-367.3390197753907	-30.09603500366212	410.9761657714845	-316.8128967285157	21.50569725036621	62.84227371215822	-337.0731506347657	45.52749252319337	94.15878295898439	-246.7412567138672	-2.662319421768189	15.25185298919678	-278.6987304687501	178.6112518310547	79.1515350341797	-260.0979614257813	169.7057342529297	89.69799041748048	-315.1987609863282	143.8530883789063	54.24463653564455	-359.0270080566407	-294.1635131835938	867.4692382812502	-19.95943832397461	-377.8066711425782	456.166229248047	-76.33133697509767	-370.8226013183594	463.5393371582032	-200.988265991211	-415.2414855957032	419.1267089843751	-79.55110168457033	-357.9445495605469	380.2533874511719	-125.5801773071289	-555.0941162109376	80.71484375000001	-123.1984939575196	-502.3754272460939	91.75335693359376	-205.8116455078126	-588.1932983398439	42.61645507812501	-174.7640380859375	-396.0121459960939	18.97087097167969	-189.3880157470703	-380.0150451660157	28.29489707946778	-130.3238677978516	-452.7310791015626	15.02219390869141	-84.40303039550783	-331.8306579589844	1479.308227539063	-203.9658508300782	-402.651092529297	1191.630859375	-197.0371704101563	-150.2751159667969	1214.38232421875	-220.2352447509766	-193.6761169433594	1383.835205078125	-217.5248260498047	-423.5504455566407	1270.753662109375	-306.6767883300782	-381.8142089843751	1416.208984375	-290.8310852050782	-319.1439819335938	1409.179809570313	-393.6904296875001	-274.1672668457032	1405.61962890625	-407.8375244140626	-357.2713012695313	1108.4140625	-491.0251464843751	-396.6861267089845	1100.395385742188	-403.7991333007814	-406.212615966797	1086.918701171875	-460.016326904297	-284.3040771484376	844.0430297851565	-456.839324951172	-334.5880126953126	847.2173461914065	-516.3391723632814	-264.3509216308594	756.2306518554689	-460.141326904297	-352.5173339843751	767.8234252929689	-518.0348510742189	-381.1647338867188	1268.491821289063	-60.86574935913087	-353.1445007324219	1412.668212890625	-96.6529235839844	-264.6221008300782	1395.72998046875	-6.59312963485718	-211.1776885986329	1394.252319335938	-7.905051231384279	-191.2400207519532	1107.927978515625	94.64208221435548	-242.8225097656251	1081.21875	19.98100662231446	-228.0519561767579	1064.158447265625	80.59864807128908	-3.138846397399903	915.0467529296877	21.21540260314942	-44.89252090454102	883.378356933594	81.1920852661133	59.45991897583009	845.2796630859377	16.65770339965821	-18.98646354675293	821.300476074219	84.75218200683595	
4	0.03	-169.210205078125	939.3249511718752	-335.1944885253907	-366.5101623535157	967.608825683594	-251.9279327392579	-366.2896118164063	967.5913696289065	-167.5752258300782	-182.6421508789063	946.0229492187502	-66.61695098876955	-255.0111236572266	868.8037109375002	-390.0761108398439	-97.66375732421878	458.3362426757814	-366.5990600585938	-107.9595260620117	461.067352294922	-223.3205261230469	-89.5231170654297	409.1141357421876	-366.7522277832032	-17.53516006469727	410.3098754882814	-315.3195800781251	33.42328262329102	62.20077133178712	-335.5711059570313	56.685359954834	93.1928176879883	-245.0252990722657	8.267999649047853	15.02824592590332	-277.4962768554688	189.8002014160157	77.37255096435548	-257.1795043945313	181.3463897705078	87.88731384277345	-312.3285522460938	155.6887512207032	52.6599578857422	-356.2895202636719	-283.0429077148438	866.0736083984377	-20.98652267456055	-368.7189331054688	455.8074340820314	-76.55580902099611	-360.8367919921876	462.7107238769532	-201.2959747314454	-406.7841796875001	419.1744689941407	-79.95371246337892	-350.0104370117188	379.2553405761719	-125.6634826660157	-553.8190307617189	83.53894805908205	-122.938461303711	-500.7522583007814	93.62078857421876	-205.5596771240235	-587.6636962890626	46.19903182983399	-174.5572509765625	-395.5448608398439	18.89548873901368	-189.2797241210938	-379.6185913085938	28.3452434539795	-130.2684478759766	-452.5034790039064	15.24027252197266	-84.45897674560548	-320.2311706542969	1477.95947265625	-205.6845855712891	-391.0546875000001	1190.36962890625	-198.1199493408204	-138.6578521728516	1213.128784179688	-221.1671447753907	-182.1545715332032	1382.48095703125	-219.0018157958985	-411.9288940429689	1268.978271484375	-307.8258972167969	-370.2251586914063	1414.582153320313	-292.3295593261719	-307.6511535644532	1407.194213867188	-395.2385864257814	-262.6496887207032	1403.622436523438	-409.3849182128907	-345.3327026367188	1105.9697265625	-491.5569152832032	-384.5162658691407	1098.048706054688	-404.3170166015626	-394.2266235351564	1084.639282226563	-460.4098510742189	-272.6376647949219	841.707702636719	-457.282440185547	-322.9389343261719	844.8948974609377	-516.7604370117189	-253.0962829589844	753.6683349609376	-460.1526489257814	-341.0404968261719	765.5463256835939	-518.3623657226564	-369.7650146484376	1267.486572265625	-62.19838333129884	-341.5833435058594	1411.746704101563	-98.17130279541018	-253.0214233398438	1394.765991210938	-8.098780632019045	-199.5893859863282	1393.252807617188	-9.393809318542482	-180.2621612548828	1106.581176757813	93.00091552734376	-231.8331909179688	1080.086669921875	18.19231986999512	-217.4242095947266	1063.062866210938	78.89373779296876	7.119071483612062	913.1236572265627	20.42320060729981	-34.82808685302735	881.731384277344	80.30374145507814	69.4891815185547	843.1165771484377	16.15583038330078	-9.251991271972658	819.5000610351565	84.01609039306642	
